<svg height="511pt" viewBox="0 1 511 511.99998" width="511pt" xmlns="http://www.w3.org/2000/svg"><path d="m255.847656 229.210938-78.71875-4.019532-54.945312 29.535156-8.296875 82.671876 34.558593 61.550781 25.933594 61.484375 74.863282 8.136718 93.667968-8.136718 24.457032-68.183594 30.015624-74.339844-18.222656-56.980468-28.136718-31.71875zm0 0" fill="#fc5659"/><path d="m325.746094 47.75c0-6.0625-5.820313-10.429688-11.640625-8.734375l-22.71875 6.617187c-6.890625 2.007813-13.28125-4.382812-11.273438-11.273437l6.617188-22.71875c1.695312-5.820313-2.671875-11.640625-8.734375-11.640625h-44.292969c-6.0625 0-10.425781 5.820312-8.734375 11.640625l6.617188 22.71875c2.007812 6.890625-4.382813 13.28125-11.273438 11.273437l-22.71875-6.617187c-5.820312-1.695313-11.640625 2.671875-11.640625 8.734375v44.292969c0 6.0625 5.820313 10.425781 11.640625 8.730469l22.71875-6.617188c6.890625-2.003906 13.28125 4.386719 11.273438 11.277344l-6.617188 22.71875c-1.695312 5.820312 2.671875 11.636718 8.734375 11.636718h44.292969c6.0625 0 10.429687-5.816406 8.734375-11.636718l-6.617188-22.71875c-2.007812-6.890625 4.382813-13.285156 11.273438-11.277344l22.71875 6.617188c5.820312 1.695312 11.640625-2.667969 11.640625-8.730469zm0 0" fill="#ffd54f"/><path d="m255.851562 94.355469c-8.789062 0-17.273437 1.3125-25.285156 3.726562 1.300782 2.066407 1.804688 4.667969 1.023438 7.351563l-6.617188 22.71875c-1.695312 5.820312 2.667969 11.636718 8.730469 11.636718h44.292969c6.0625 0 10.429687-5.816406 8.734375-11.636718l-6.617188-22.71875c-.78125-2.683594-.277343-5.285156 1.023438-7.351563-8.015625-2.414062-16.5-3.726562-25.285157-3.726562zm0 0" fill="#fabc36"/><path d="m317.941406 182.203125c0 34.292969-27.800781 62.089844-62.089844 62.089844-34.292968 0-62.09375-27.796875-62.09375-62.089844s27.800782-62.089844 62.09375-62.089844c34.289063 0 62.089844 27.796875 62.089844 62.089844zm0 0" fill="#fc5659"/><path d="m224.664062 182.203125c0-28.957031 19.824219-53.28125 46.636719-60.152344-4.9375-1.265625-10.117187-1.9375-15.449219-1.9375-34.292968 0-62.09375 27.796875-62.09375 62.089844s27.800782 62.089844 62.09375 62.089844c5.332032 0 10.511719-.671875 15.449219-1.9375-26.8125-6.871094-46.636719-31.195313-46.636719-60.152344zm0 0" fill="#f24447"/><path d="m191.390625 455.855469-10.675781-3.160157c-1.8125-.539062-3.371094-1.535156-4.628906-2.957031-34.167969-38.703125-56.152344-79.796875-63.574219-118.84375-4.777344-25.144531-3.285157-48.644531 4.316406-67.957031l8.894531-22.597656-24.234375 1.515625-.34375.015625c-.472656.023437-.941406.046875-1.40625.085937-20.332031 1.664063-37.144531 10.183594-48.628906 24.640625-13.824219 17.414063-18.398437 42.027344-12.875 69.308594 6.554687 32.367188 26.828125 67.050781 58.625 100.308594 1.847656 1.929687 2.828125 4.464844 2.769531 7.132812-.058594 2.667969-1.15625 5.152344-3.085937 7-.386719.367188-.84375.726563-1.402344 1.097656l-13.664063 9.09375 25.195313 33.324219h86.007813zm0 0" fill="#f24447"/><path d="m320.308594 455.855469 10.675781-3.160157c1.816406-.539062 3.371094-1.535156 4.628906-2.957031 34.167969-38.703125 56.152344-79.796875 63.574219-118.84375 4.777344-25.144531 3.285156-48.644531-4.316406-67.957031l-8.894532-22.597656 24.234376 1.515625.34375.015625c.472656.023437.941406.046875 1.40625.085937 20.332031 1.664063 37.148437 10.183594 48.628906 24.640625 13.824218 17.414063 18.398437 42.027344 12.875 69.308594-6.554688 32.367188-26.828125 67.050781-58.625 100.308594-1.84375 1.929687-2.828125 4.464844-2.769532 7.132812.0625 2.667969 1.15625 5.152344 3.085938 7 .386719.367188.84375.726563 1.402344 1.097656l13.664062 9.09375-25.195312 33.324219h-86.007813zm0 0" fill="#f24447"/><path d="m53.382812 332.839844c-4.605468-22.738282-1.113281-42.851563 9.832032-56.632813 8.753906-11.027343 21.820312-17.546875 37.78125-18.851562 9.925781-.808594 20.574218.425781 31.621094 3.597656l36.84375-40.589844c-24.679688-10.902343-49.425782-15.628906-72.609376-13.734375-29.917968 2.445313-56.015624 15.914063-73.496093 37.929688-20.4375 25.738281-27.492188 60.679687-19.855469 98.378906 7.886719 38.941406 31.3125 79.664062 67.746094 117.769531 4.996094 5.226563 11.691406 7.863281 18.394531 7.863281 6.320313 0 12.652344-2.339843 17.582031-7.054687 10.160156-9.710937 10.519532-25.820313.808594-35.980469-29.777344-31.144531-48.675781-63.199218-54.648438-92.695312zm0 0" fill="#ffd54f"/><path d="m488.34375 244.558594c-17.480469-22.011719-43.582031-35.480469-73.496094-37.925782-22.976562-1.882812-47.484375 2.742188-71.9375 13.433594l36.25 40.863282c11.019532-3.152344 21.640625-4.382813 31.542969-3.574219 15.964844 1.304687 29.027344 7.824219 37.78125 18.851562 10.945313 13.78125 14.4375 33.894531 9.835937 56.632813-5.976562 29.496094-24.871093 61.550781-54.648437 92.695312-9.714844 10.160156-9.351563 26.269532.804687 35.980469 4.933594 4.714844 11.261719 7.054687 17.582032 7.054687 6.703125 0 13.398437-2.632812 18.398437-7.863281 36.433594-38.105469 59.859375-78.832031 67.742188-117.769531 7.636719-37.699219.582031-72.640625-19.855469-98.378906zm0 0" fill="#ffd54f"/><path d="m98.050781 206.554688c-1.308593 1.429687-2.585937 2.886718-3.828125 4.382812-14.433594 17.457031-23.921875 38.570312-28.203125 62.070312 8.640625-9.082031 20.632813-14.480468 34.980469-15.652343 9.921875-.808594 20.570312.425781 31.621094 3.597656l36.84375-40.589844c-24.257813-10.714843-48.574219-15.449219-71.414063-13.808593zm0 0" fill="#fabc36"/><path d="m183.589844 468.570312c-7.046875 0-14.054688-2.910156-19.085938-8.605468-36.007812-40.78125-59.234375-84.414063-67.171875-126.183594-7.78125-40.953125-.425781-77.585938 20.710938-103.148438 26.15625-31.632812 79.5-50.410156 150.765625-8.238281 12.09375 7.15625 16.097656 22.765625 8.941406 34.859375-7.15625 12.097656-22.765625 16.097656-34.859375 8.941406-37.089844-21.949218-69.097656-23.117187-85.625-3.128906-11.144531 13.472656-14.765625 35.785156-9.933594 61.210938 4.347657 22.871094 17.472657 59.132812 55.324219 102 9.300781 10.535156 8.300781 26.617187-2.234375 35.917968-4.839844 4.273438-10.847656 6.375-16.832031 6.375zm0 0" fill="#ffd54f"/><path d="m410.703125 257.355469c14.34375 1.171875 26.339844 6.570312 34.980469 15.652343-4.28125-23.5-13.773438-44.613281-28.207032-62.070312-1.238281-1.496094-2.519531-2.953125-3.824218-4.382812-22.632813-1.625-46.710938 3.007812-70.742188 13.511718l36.25 40.863282c11.019532-3.152344 21.640625-4.382813 31.542969-3.574219zm0 0" fill="#fabc36"/><path d="m328.109375 468.570312c-5.984375 0-11.992187-2.097656-16.832031-6.371093-10.535156-9.304688-11.535156-25.382813-2.230469-35.917969 37.847656-42.871094 50.976563-79.132812 55.320313-102.003906 4.832031-25.425782 1.210937-47.734375-9.929688-61.210938-16.53125-19.988281-48.539062-18.816406-85.625 3.128906-12.097656 7.15625-27.703125 3.15625-34.863281-8.941406-7.15625-12.09375-3.15625-27.699218 8.941406-34.859375 71.265625-42.171875 124.609375-23.394531 150.769531 8.242188 21.136719 25.558593 28.488282 62.191406 20.707032 103.144531-7.9375 41.773438-31.164063 85.40625-67.171876 126.183594-5.027343 5.695312-12.039062 8.605468-19.085937 8.605468zm0 0" fill="#ffd54f"/><g fill="#fabc36"><path d="m312.203125 422.644531c-1.035156 1.207031-2.082031 2.417969-3.15625 3.632813-8.742187 9.898437-8.386719 24.691406.425781 34.15625 1.765625-5.457032 2.730469-11.273438 2.730469-17.3125zm0 0"/><path d="m312.203125 249.5625v-41.910156c0-3.15625-.273437-6.246094-.773437-9.257813-20.328126 1.785157-43.308594 9.070313-68.539063 24-12.097656 7.15625-16.097656 22.765625-8.941406 34.859375 7.160156 12.09375 22.765625 16.097656 34.863281 8.941406 15.625-9.25 30.34375-14.792968 43.390625-16.632812zm0 0"/><path d="m268.8125 222.394531c-25.234375-14.929687-48.214844-22.214843-68.542969-24-.5 3.011719-.773437 6.101563-.773437 9.257813v41.910156c13.046875 1.839844 27.765625 7.382812 43.394531 16.632812 12.09375 7.15625 27.703125 3.15625 34.859375-8.941406 7.160156-12.09375 3.15625-27.703125-8.9375-34.859375zm0 0"/><path d="m199.496094 422.644531v20.476563c0 6.039062.96875 11.855468 2.734375 17.3125 8.808593-9.464844 9.164062-24.257813.425781-34.15625-1.074219-1.214844-2.125-2.425782-3.160156-3.632813zm0 0"/></g><path d="m255.851562 468.570312c-14.054687 0-25.449218-11.394531-25.449218-25.449218v-235.46875c0-14.054688 11.394531-25.449219 25.449218-25.449219 14.050782 0 25.445313 11.394531 25.445313 25.449219v235.46875c0 14.054687-11.394531 25.449218-25.445313 25.449218zm0 0" fill="#ffd54f"/><path d="m469.863281 425.535156h-428.03125c-12.148437 0-22 9.851563-22 22v42.464844c0 12.152344 9.851563 22 22 22h428.03125c12.152344 0 22-9.847656 22-22v-42.464844c0-12.148437-9.847656-22-22-22zm0 0" fill="#fabc36"/><path d="m275.53125 468.570312c0 10.867188-8.8125 19.679688-19.679688 19.679688-10.871093 0-19.679687-8.8125-19.679687-19.679688 0-10.871093 8.808594-19.679687 19.679687-19.679687 10.867188 0 19.679688 8.808594 19.679688 19.679687zm0 0" fill="#f24447"/><path d="m363.253906 468.570312c0 10.867188-8.808594 19.679688-19.679687 19.679688-10.867188 0-19.679688-8.8125-19.679688-19.679688 0-10.871093 8.8125-19.679687 19.679688-19.679687 10.871093 0 19.679687 8.808594 19.679687 19.679687zm0 0" fill="#029be5"/><path d="m450.980469 468.570312c0 10.867188-8.8125 19.679688-19.679688 19.679688-10.871093 0-19.679687-8.8125-19.679687-19.679688 0-10.871093 8.808594-19.679687 19.679687-19.679687 10.867188 0 19.679688 8.808594 19.679688 19.679687zm0 0" fill="#4d984d"/><path d="m187.804688 468.570312c0 10.867188-8.8125 19.679688-19.679688 19.679688s-19.679688-8.8125-19.679688-19.679688c0-10.871093 8.8125-19.679687 19.679688-19.679687s19.679688 8.808594 19.679688 19.679687zm0 0" fill="#029be5"/><path d="m100.082031 468.570312c0 10.867188-8.8125 19.679688-19.679687 19.679688-10.871094 0-19.679688-8.8125-19.679688-19.679688 0-10.871093 8.808594-19.679687 19.679688-19.679687 10.867187 0 19.679687 8.808594 19.679687 19.679687zm0 0" fill="#4d984d"/></svg>